<svg width="227" height="227" viewBox="0 0 227 227" fill="none" xmlns="http://www.w3.org/2000/svg">
<mask id="mask0_174_1533" style="mask-type:alpha" maskUnits="userSpaceOnUse" x="0" y="0" width="227" height="227">
<rect width="227" height="227" rx="20" fill="#580009"/>
</mask>
<g mask="url(#mask0_174_1533)">
<g style="mix-blend-mode:screen" opacity="0.4">
<path d="M135.934 238.59C134.433 236.151 132.432 232.774 131.118 230.21C130.055 230.647 128.679 231.335 127.679 231.898C125.24 229.772 121.988 226.958 119.611 224.706C121.738 227.771 124.677 231.835 126.991 234.712C127.491 236.088 128.304 237.839 129.055 239.09C130.806 240.216 133.245 241.529 134.933 242.655C137.935 245.031 142 248.158 145.127 250.347C143.626 248.721 141.625 246.532 140.311 244.781C142.062 245.156 144.439 245.719 146.19 246.094C143.063 243.905 138.936 240.966 135.934 238.59Z" fill="#580009"/>
<path d="M106.604 111.074C106.416 111.575 106.229 112.075 105.979 112.575C106.354 111.825 106.666 111.012 107.042 110.261C106.917 110.574 106.729 110.824 106.604 111.074Z" fill="#580009"/>
<path d="M151.504 235.65C154.131 236.401 157.57 237.339 160.197 238.152C157.57 235.463 154.131 231.898 151.629 229.147C151.629 226.52 151.817 223.018 152.067 220.391C149.566 220.579 146.189 220.892 143.687 221.142C140.935 218.578 137.246 215.201 134.557 212.574C135.557 215.888 136.87 220.266 138.121 223.456C136.933 224.644 135.432 226.332 134.369 227.646C137.121 229.084 141.06 230.522 143.499 232.461C145.876 235.275 149.128 238.965 151.692 241.592C151.504 239.84 151.379 237.401 151.504 235.65Z" fill="#580009"/>
<path d="M108.353 202.006C107.853 198.629 107.29 194.126 107.04 190.749C105.914 191.375 104.476 192.25 103.475 193.001C102.162 190.249 100.474 186.559 99.3479 183.683C100.223 187.622 101.474 192.876 102.6 196.69C102.913 198.129 103.288 200.068 103.788 201.443L103.851 201.631L104.664 203.57C105.352 204.82 106.29 206.446 106.978 207.697C108.791 211.199 111.293 215.827 113.294 219.204C112.293 216.703 111.042 213.326 110.229 210.761C111.605 211.324 113.419 212.075 114.857 212.575C112.856 209.448 110.167 205.258 108.353 202.006Z" fill="#580009"/>
<path d="M111.105 102.258L109.041 106.01C108.416 107.323 107.728 108.762 107.04 110.263C108.729 107.198 110.918 103.383 112.669 100.569C112.168 101.07 111.48 101.695 111.105 102.258Z" fill="#580009"/>
<path d="M105.979 112.577C104.728 115.328 103.54 118.205 102.539 120.644C102.539 121.082 102.477 121.645 102.602 122.083C103.602 119.206 104.853 115.641 105.979 112.577Z" fill="#580009"/>
<path d="M100.161 143.845C99.2225 144.47 98.0342 145.408 97.2213 146.221C97.4089 143.282 97.7216 139.342 98.2219 136.465L97.2838 141.531C96.6584 146.846 96.0956 153.976 95.908 159.292C96.0956 164.044 96.4708 170.361 96.9711 175.114C96.7835 172.55 96.5333 169.172 96.5959 166.608C97.2838 167.359 98.2844 168.297 99.0974 168.922C98.5345 165.17 97.8466 160.167 97.5339 156.415C98.1593 152.6 99.2225 147.534 100.161 143.845Z" fill="#580009"/>
<path d="M126.802 197.252C129.742 198.127 133.619 199.315 136.558 200.191C134.682 196.751 132.181 192.124 130.367 188.559C131.618 185.182 133.431 180.804 134.932 177.552C131.805 177.865 127.678 178.365 124.614 178.741C122.55 175.739 119.861 171.674 117.922 168.547C117.609 172.487 117.297 177.802 117.234 181.742C115.42 183.306 112.981 185.495 111.293 187.246C113.544 189.059 117.234 190.873 118.985 193.249C120.236 197.002 121.924 201.942 123.363 205.569C124.301 203.068 125.677 199.691 126.802 197.252Z" fill="#580009"/>
<path d="M212.728 228.208C214.73 229.709 217.294 231.773 219.17 233.399C219.608 230.335 220.108 226.207 220.421 223.08C223.11 220.954 226.737 218.14 229.489 216.013C226.549 215.2 222.547 214.2 219.545 213.449C218.544 210.197 217.106 205.82 215.98 202.568C214.167 205.695 211.728 209.822 209.977 213.012C206.725 213.449 202.347 214.075 199.095 214.575C201.347 216.889 204.348 219.953 206.537 222.392C205.912 225.457 205.161 229.584 204.599 232.648C207.038 231.335 210.289 229.522 212.728 228.208Z" fill="#580009"/>
<path d="M119.671 131.088C118.796 128.149 117.608 124.146 116.92 121.144C115.294 125.084 113.23 130.275 111.792 134.277C109.603 135.966 106.726 138.217 104.725 140.093C106.038 142.095 108.665 144.346 109.353 146.66C109.165 150.85 109.04 156.416 109.04 160.606C110.854 157.666 113.48 153.789 115.481 150.975C118.233 151.976 121.86 153.226 124.612 154.164C123.799 150.35 122.736 145.221 122.048 141.344C124.362 137.779 127.551 133.027 130.053 129.587C126.988 130.087 122.798 130.588 119.671 131.088Z" fill="#580009"/>
<path d="M205.975 144.47C210.04 142.656 215.543 140.217 219.671 138.466C223.61 140.593 228.864 143.469 232.804 145.721C232.178 141.593 231.303 136.152 230.615 132.025C233.742 129.461 237.932 126.146 241.121 123.582C236.743 122.582 230.865 121.331 226.487 120.393C224.423 116.891 221.672 112.2 219.545 108.698C217.544 112.013 214.918 116.453 212.979 119.768C208.351 120.268 202.223 120.956 197.595 121.519C200.972 124.333 205.412 128.085 208.726 130.962C207.851 135.027 206.788 140.405 205.975 144.47Z" fill="#580009"/>
<path d="M205.975 98.4426C209.79 97.0042 214.918 95.0656 218.795 93.6897C222.735 95.4408 227.988 97.8172 231.865 99.6934C230.802 96.4414 229.426 92.0637 228.363 88.8743C230.865 87.0607 234.179 84.6843 236.618 82.8707C232.741 82.0577 227.488 81.1196 223.548 80.3692C221.547 77.9302 218.795 74.6157 216.794 72.2393C215.293 74.5532 213.292 77.555 211.791 79.8063C207.726 80.119 202.348 80.6193 198.345 81.0571C201.347 83.1208 205.349 85.8725 208.351 87.9362C207.601 91.0631 206.663 95.2532 205.975 98.4426Z" fill="#580009"/>
<path d="M205.474 65.4227C208.351 64.5472 212.228 63.4215 215.105 62.546C218.294 63.6716 222.547 65.1725 225.736 66.3608C224.548 64.3596 222.922 61.733 221.609 59.7943C222.984 58.8562 224.861 57.668 226.236 56.6674C223.485 56.2296 219.858 55.6043 217.106 55.229C215.48 54.1034 213.354 52.6024 211.665 51.5393C210.915 52.6024 209.851 53.9157 209.101 54.9163C206.349 55.0414 202.66 55.2916 199.908 55.5417C202.034 56.6049 204.848 58.1058 206.975 59.2315C206.537 61.0451 205.912 63.5466 205.474 65.4227Z" fill="#580009"/>
<path d="M143.937 72.8649C145.5 70.8012 147.564 68.0495 149.315 66.1108C152.255 64.3598 156.194 62.0459 159.196 60.4199C157.633 60.7326 155.506 61.1703 154.006 61.5456C155.569 60.3573 157.758 58.8564 159.446 57.8558C156.382 59.4818 152.317 61.6706 149.378 63.4842C147.689 64.4223 145.5 65.6731 143.937 66.7362C142.936 67.5492 141.748 68.7374 140.873 69.6755C138.246 72.0519 134.744 75.2413 132.242 77.7429C134.806 75.8667 138.246 73.3652 140.873 71.6142C141.686 71.9894 142.936 72.5522 143.937 72.8649Z" fill="#580009"/>
<path d="M155.381 91.3756C154.005 94.6901 152.129 99.1303 150.878 102.507C154.818 100.381 160.134 97.5668 164.136 95.5031C167.826 96.6287 172.704 98.1922 176.393 99.3804C176.018 96.2535 175.518 92.0635 175.205 88.9366C178.457 86.6227 182.835 83.6209 186.149 81.3695C182.209 81.2444 176.956 81.0568 172.954 80.9943C171.891 78.8055 170.452 75.9287 169.514 73.6774C167.013 76.2414 163.698 79.7435 161.322 82.3701C157.507 83.3707 152.504 84.7466 148.752 85.8097C150.628 87.5608 153.317 89.7496 155.381 91.3756Z" fill="#580009"/>
<path d="M157.134 195.439C160.011 193.125 163.889 190.123 166.89 187.997C170.705 189.373 175.708 191.249 179.46 192.75C178.272 188.998 176.646 184.057 175.458 180.305C178.21 177.303 181.962 173.301 184.776 170.424C180.399 170.111 174.645 169.799 170.267 169.548C167.954 166.171 164.889 161.606 162.575 158.229C161.074 162.044 159.073 167.172 157.697 171.049C153.882 172.238 148.879 173.864 145.127 175.177C148.379 177.428 152.757 180.368 156.071 182.619C156.384 186.496 156.759 191.624 157.134 195.439Z" fill="#580009"/>
<path d="M117.484 102.257C115.858 105.821 113.794 110.512 112.355 114.139C114.794 111.512 118.171 108.01 120.736 105.571C122.737 106.322 125.363 107.26 127.365 108.01C127.802 104.821 128.428 100.631 129.053 97.5037C131.992 94.6895 135.932 90.9372 138.934 88.2481C136.37 88.6233 132.93 89.1862 130.366 89.6865C130.742 87.4977 131.242 84.6209 131.867 82.4946C129.303 85.4339 125.926 89.4363 123.487 92.5007C121.361 93.8765 118.609 95.8152 116.608 97.3786C116.796 98.817 117.609 100.756 117.484 102.257Z" fill="#580009"/>
<path d="M224.923 168.735C223.235 164.983 220.921 159.98 219.17 156.29C217.106 159.855 214.292 164.545 212.228 168.11C207.913 168.61 202.097 169.36 197.782 169.923C200.846 172.675 204.974 176.365 207.976 179.179C207.225 182.994 206.162 188.059 205.412 191.812C208.976 190.123 213.792 187.872 217.356 186.183C220.608 188.122 224.923 190.811 228.05 192.875C227.925 189.06 227.738 183.932 227.55 180.054C230.739 177.553 235.055 174.238 238.306 171.799C234.367 170.861 228.988 169.611 224.923 168.735Z" fill="#580009"/>
<path d="M173.644 63.9835C176.208 64.6089 179.648 65.5469 182.274 66.2348C182.399 64.3587 182.587 61.8572 182.837 59.9811C185.464 58.7303 188.903 57.0418 191.53 55.791C188.903 55.791 185.401 55.791 182.775 55.791C182.649 54.853 182.462 53.5397 182.524 52.5391C180.211 53.7273 177.146 55.4158 174.895 56.7291C172.206 57.3545 168.578 58.1675 165.889 58.8554C166.64 59.7309 167.64 60.9191 168.453 61.6696C166.577 63.7333 164.076 66.4225 162.325 68.5487C165.702 67.1729 170.204 65.2968 173.644 63.9835Z" fill="#580009"/>
<path d="M178.271 214.137C175.957 211.135 172.893 207.133 170.516 204.193C169.891 207.508 169.14 211.948 168.765 215.262C166.014 216.2 162.386 217.514 159.697 218.514C162.699 220.391 167.577 221.954 169.766 224.831C170.766 227.895 172.205 231.96 173.393 234.962C174.894 233.211 176.958 230.959 178.521 229.333C181.335 230.459 185.025 232.023 187.777 233.273C186.463 230.272 184.775 226.269 183.462 223.205C185.15 220.703 187.527 217.389 189.34 214.95C186.088 214.7 181.586 214.387 178.271 214.137Z" fill="#580009"/>
<path d="M168.328 121.269C166.514 118.08 164.075 113.827 162.262 110.638C160.01 114.265 157.071 119.143 154.945 122.833C150.755 124.021 145.189 125.772 141.061 127.085C143.938 129.399 147.878 132.463 150.817 134.715C150.192 138.842 149.441 144.408 148.941 148.536C152.693 146.034 157.759 142.72 161.574 140.343C165.701 141.844 171.204 143.845 175.269 145.346C174.394 141.406 173.206 136.091 172.393 132.088C175.707 129.024 180.21 124.896 183.587 121.895C179.022 121.769 172.956 121.457 168.328 121.269Z" fill="#580009"/>
<path d="M175.581 268.475C170.078 276.981 159.634 282.984 149.691 283.922C132.68 285.486 113.044 294.991 113.044 294.991C113.044 294.991 118.297 257.031 137.934 258.594C122.237 257.031 111.73 264.911 102.6 266.474C93.4692 268.038 79.023 266.474 75.0831 274.354C73.7698 258.532 76.3964 241.146 105.226 236.394C85.5895 234.83 72.5191 226.888 65.9526 220.572C59.3861 214.255 47.629 214.255 47.629 214.255C47.629 214.255 67.2659 193.68 84.2762 198.433C61.9502 192.179 54.0704 168.478 41 168.478C55.3837 158.972 64.5768 151.092 78.9604 165.288C60.6369 146.339 58.0103 111.506 68.5166 90.9306C84.2136 102 86.8402 117.822 86.8402 117.822C86.8402 117.822 105.164 32.4578 145.751 34.0212C140.498 52.9702 137.871 64.0394 137.871 64.0394C137.809 64.3521 136.12 65.04 135.87 65.165C102.662 84.927 84.4012 121.887 86.0272 160.097C86.1523 162.787 86.3399 165.476 86.6526 168.165C87.4031 174.794 88.6538 181.36 90.3423 187.864C92.9064 197.495 96.6586 206.876 101.662 215.568C113.794 236.644 131.617 255.718 155.069 263.91C160.572 265.849 166.326 267.412 172.079 268.413C173.267 268.601 174.456 268.538 175.581 268.475Z" fill="#580009"/>
</g>
</g>
</svg>
