<svg width="135" height="30" viewBox="0 0 135 30" fill="none" xmlns="http://www.w3.org/2000/svg">
<g clip-path="url(#clip0_2_1917)">
<path d="M16.0211 25.3808C15.8791 25.2175 15.6945 24.9831 15.5809 24.7985C15.4104 24.7985 15.1903 24.8056 15.0198 24.8127C14.6719 24.6138 14.2103 24.3511 13.8694 24.1451C14.1108 24.3937 14.4375 24.7204 14.7003 24.9405C14.6648 25.0115 14.6221 25.1181 14.6008 25.1962C14.9133 25.2956 15.3394 25.4163 15.6519 25.5299C16.0211 25.6933 16.5183 25.8992 16.8946 26.0341C16.7526 25.956 16.568 25.8424 16.4401 25.7501C16.6532 25.7998 16.9301 25.8779 17.1432 25.9347C16.8023 25.7785 16.3549 25.5583 16.0211 25.3808Z" fill="white"/>
<path d="M10.7803 23.229C10.6098 22.952 10.3826 22.5686 10.2334 22.2774C10.1127 22.3271 9.95648 22.4052 9.84285 22.4691C9.5659 22.2277 9.19662 21.9081 8.92676 21.6525C9.16821 22.0004 9.50198 22.462 9.76474 22.7887C9.82155 22.9449 9.91387 23.1438 9.99909 23.2858C10.1979 23.4136 10.4749 23.5628 10.6666 23.6906C11.0075 23.9605 11.4691 24.3155 11.8242 24.5641C11.6537 24.3795 11.4265 24.1309 11.2774 23.9321C11.4762 23.9747 11.7461 24.0386 11.9449 24.0812C11.5898 23.8326 11.1211 23.4989 10.7803 23.229Z" fill="white"/>
<path d="M7.44968 8.74906C7.42837 8.80587 7.40707 8.86268 7.37866 8.9195C7.42127 8.83428 7.45678 8.74196 7.49939 8.65674C7.48519 8.69225 7.46388 8.72065 7.44968 8.74906Z" fill="white"/>
<path d="M15.3037 25.814C15.0338 25.6791 14.6858 25.4944 14.4302 25.3382C14.3378 25.3595 14.21 25.395 14.1177 25.4234C13.7484 25.2885 13.2584 25.0968 12.8962 24.9476C13.2442 25.1465 13.72 25.4092 14.0822 25.5797C14.1461 25.6578 14.2455 25.7572 14.3236 25.8282C14.6077 25.885 14.9841 25.9489 15.2681 25.9987C15.7013 26.0981 16.2766 26.2188 16.7169 26.2898C16.5109 26.2401 16.234 26.162 16.028 26.0981C16.2411 26.1194 16.5322 26.1478 16.7453 26.1691C16.2979 26.0697 15.7297 25.9347 15.3037 25.814Z" fill="white"/>
<path d="M12.5484 22.8952C12.8466 22.9805 13.2372 23.087 13.5355 23.1793C13.2372 22.8739 12.8466 22.4692 12.5626 22.1567C12.5626 21.8584 12.5839 21.4607 12.6123 21.1625C12.3282 21.1838 11.9447 21.2193 11.6607 21.2477C11.3482 20.9565 10.9292 20.573 10.6238 20.2748C10.7375 20.6512 10.8866 21.1483 11.0286 21.5104C10.8937 21.6454 10.7233 21.8371 10.6025 21.9862C10.915 22.1496 11.3624 22.3129 11.6394 22.5331C11.9092 22.8526 12.2785 23.2716 12.5697 23.5699C12.5484 23.371 12.5342 23.0941 12.5484 22.8952Z" fill="white"/>
<path d="M7.64835 19.0746C7.59154 18.6912 7.52763 18.1799 7.49922 17.7964C7.37139 17.8674 7.20806 17.9668 7.09443 18.052C6.9453 17.7396 6.75356 17.3206 6.62573 16.9939C6.72515 17.4413 6.86718 18.0378 6.99501 18.471C7.03052 18.6343 7.07313 18.8545 7.12994 19.0107L7.13704 19.032L7.22936 19.2522C7.30748 19.3942 7.414 19.5789 7.49212 19.7209C7.69806 20.1186 7.98212 20.6441 8.20937 21.0276C8.09575 20.7435 7.95372 20.36 7.8614 20.0689C8.01763 20.1328 8.22358 20.218 8.38691 20.2748C8.15966 19.9197 7.8543 19.4439 7.64835 19.0746Z" fill="white"/>
<path d="M7.96087 7.74765L7.72652 8.17374C7.6555 8.32287 7.57738 8.48621 7.49927 8.65664C7.69101 8.30867 7.93956 7.87548 8.1384 7.55591C8.08159 7.61272 8.00348 7.68374 7.96087 7.74765Z" fill="white"/>
<path d="M7.37869 8.91943C7.23666 9.2319 7.10173 9.55857 6.9881 9.83553C6.9881 9.88524 6.981 9.94915 6.99521 9.99887C7.10883 9.67219 7.25086 9.26741 7.37869 8.91943Z" fill="white"/>
<path d="M6.71801 12.4702C6.61149 12.5412 6.47656 12.6477 6.38424 12.74C6.40554 12.4063 6.44105 11.9589 6.49786 11.6322L6.39134 12.2074C6.32033 12.8111 6.25641 13.6206 6.23511 14.2243C6.25641 14.764 6.29902 15.4812 6.35583 16.0209C6.33453 15.7298 6.30612 15.3463 6.31322 15.0551C6.39134 15.1404 6.50497 15.2469 6.59729 15.3179C6.53337 14.8918 6.45525 14.3237 6.41975 13.8976C6.49076 13.4644 6.61149 12.8892 6.71801 12.4702Z" fill="white"/>
<path d="M9.74336 18.5349C10.0771 18.6343 10.5174 18.7692 10.8512 18.8686C10.6381 18.4781 10.3541 17.9525 10.1481 17.5478C10.2902 17.1643 10.4961 16.6672 10.6666 16.2979C10.3115 16.3334 9.84278 16.3902 9.4948 16.4328C9.26045 16.0919 8.95509 15.6303 8.73494 15.2753C8.69943 15.7227 8.66392 16.3263 8.65682 16.7737C8.45088 16.9512 8.17392 17.1998 7.98218 17.3986C8.23783 17.6046 8.65682 17.8105 8.85567 18.0804C8.9977 18.5065 9.18944 19.0675 9.35277 19.4794C9.4593 19.1953 9.61553 18.8118 9.74336 18.5349Z" fill="white"/>
<path d="M29.6702 16.2269C29.4856 16.5536 29.237 16.9939 29.0311 17.3135C28.7825 17.2353 28.4558 17.1359 28.2073 17.072C28.2783 17.4626 28.4842 17.9881 28.399 18.3716C28.1789 18.748 27.8735 19.2522 27.6392 19.6215C27.8948 19.5504 28.2357 19.4581 28.4842 19.3871C28.4984 19.6783 28.4984 20.076 28.4771 20.3671C28.6831 19.9694 28.9458 19.4297 29.1234 19.0178C29.308 18.8403 29.5424 18.5988 29.7128 18.4071C29.6702 18.2012 29.585 17.9313 29.5069 17.7325C29.5637 17.2851 29.6418 16.6814 29.6702 16.2269Z" fill="white"/>
<path d="M26.4389 21.9082C26.2259 21.8514 25.9489 21.7803 25.7359 21.7306C25.6719 22.036 25.6435 22.4692 25.4802 22.7249C25.1464 23.0089 24.699 23.3782 24.3582 23.648C24.6138 23.5912 24.9618 23.5202 25.2174 23.4634C25.1322 23.6694 25.0044 23.9392 24.8979 24.131C25.2316 23.854 25.679 23.4847 25.9986 23.1865C26.2614 23.0515 26.6093 22.874 26.8721 22.732C26.865 22.5757 26.8366 22.3769 26.8082 22.2206C27.0212 21.8656 27.2911 21.3969 27.4757 21.0276C27.1562 21.2974 26.7514 21.6525 26.4389 21.9082Z" fill="white"/>
<path d="M30.217 12.3992C30.1105 11.9305 29.9543 11.3127 29.8194 10.8511C29.798 11.1848 29.7696 11.6251 29.7199 11.9518C29.4856 11.8666 29.166 11.7601 28.9246 11.6891C29.1234 12.108 29.4998 12.6407 29.5566 13.1094C29.4927 13.5355 29.4004 14.1107 29.308 14.5368C29.514 14.4586 29.7838 14.3521 29.9898 14.2669C30.0963 14.6078 30.2241 15.0694 30.2952 15.4174C30.3236 14.9416 30.3591 14.3095 30.3662 13.8266C30.4301 13.6207 30.5082 13.3366 30.5366 13.1165C30.4585 12.8963 30.3307 12.6052 30.217 12.3992Z" fill="white"/>
<path d="M17.4982 25.111C17.5266 24.9264 17.5834 24.6778 17.6473 24.5003C17.4484 24.4719 17.1857 24.4364 16.9939 24.4151C16.7738 24.1665 16.4826 23.8398 16.2554 23.5984C16.3051 23.8682 16.3761 24.2233 16.4542 24.479C16.3193 24.5429 16.1418 24.6281 16.0068 24.692C16.2696 24.8341 16.6318 24.9903 16.8661 25.182C17.0579 25.388 17.3206 25.6578 17.5337 25.8425C17.5053 25.7502 17.4769 25.6152 17.4697 25.5158C17.6189 25.5939 17.8106 25.7075 17.9527 25.7928C17.8177 25.5939 17.6331 25.317 17.4982 25.111Z" fill="white"/>
<path d="M24.3655 21.0205C24.4152 20.6441 24.4791 20.1399 24.5004 19.7635C24.2021 20.076 23.8044 20.5021 23.5062 20.8146C23.1724 20.8075 22.725 20.8075 22.3912 20.8075C22.5049 21.0986 22.6398 21.4892 22.725 21.7875C22.4907 22.1142 22.1853 22.5473 21.9438 22.874C22.2563 22.7675 22.6753 22.6184 22.9878 22.5189C23.073 22.7178 23.1866 22.9876 23.2505 23.1936C23.4707 22.8669 23.7618 22.4337 23.9678 22.0929C24.3087 21.9082 24.7632 21.6597 25.0969 21.4679C24.8839 21.3259 24.5927 21.1412 24.3655 21.0205Z" fill="white"/>
<path d="M28.612 8.03187C28.7185 8.39404 28.8605 8.87695 28.9458 9.24623C29.0594 9.18941 29.2156 9.1113 29.315 9.04028C29.4997 9.35275 29.7411 9.77174 29.8974 10.0984C29.7411 9.67232 29.5281 9.1113 29.3505 8.69231L29.2298 8.38694L29.1446 8.21651L28.9458 7.85433C28.8747 7.75491 28.7895 7.61288 28.7185 7.51345C28.47 7.14418 28.1291 6.64707 27.8592 6.29199C27.9942 6.53344 28.1717 6.86722 28.2853 7.12287C28.1007 7.03765 27.8521 6.93823 27.6675 6.87432C27.9586 7.21519 28.406 7.62708 28.612 8.03187Z" fill="white"/>
<path d="M21.9722 25.0754C21.7734 25.2458 21.5106 25.4944 21.2833 25.6151C20.8857 25.7571 20.3459 25.9418 19.9412 26.0625C20.1613 26.027 20.4596 25.9844 20.6868 25.9489C20.5093 26.027 20.2678 26.1264 20.0832 26.1903C20.5093 26.0838 21.0774 25.9418 21.4964 25.8068C21.8089 25.7358 22.2208 25.6435 22.5261 25.5725C22.5616 25.4944 22.5971 25.395 22.6184 25.3168C22.9451 25.1109 23.3712 24.8339 23.6837 24.6067C23.3144 24.7771 22.8173 25.0044 22.4409 25.1606C22.2918 25.1251 22.1071 25.0967 21.9722 25.0754Z" fill="white"/>
<path d="M19.65 25.9418C19.9553 25.7714 20.3672 25.5441 20.6584 25.3524C20.9566 25.2317 21.3543 25.0683 21.6526 24.9476C21.5745 24.8695 21.4679 24.7701 21.3827 24.7062C21.5603 24.4576 21.7946 24.1238 21.9437 23.8611C21.6455 24.0883 21.2549 24.3795 20.9566 24.6067C20.772 24.6138 20.5234 24.6209 20.3388 24.6352C20.2962 24.8198 20.2678 25.0896 20.1542 25.2388C19.9056 25.4305 19.5718 25.6862 19.3091 25.8708C19.4937 25.7998 19.7423 25.7075 19.9269 25.6365C19.863 25.7288 19.7494 25.8566 19.65 25.9418Z" fill="white"/>
<path d="M19.3375 24.3795C19.3233 24.1168 19.2878 23.7617 19.2523 23.4918C19.1102 23.7475 18.9256 24.0883 18.7907 24.3511C18.606 24.3866 18.3646 24.4363 18.1799 24.4789C18.3007 24.6494 18.5279 24.8624 18.5634 25.0684C18.5279 25.2814 18.4782 25.5655 18.4498 25.7785C18.5421 25.6791 18.6699 25.5584 18.7765 25.4731C18.8191 25.5655 18.8617 25.7004 18.883 25.7998C18.9895 25.5939 19.1244 25.3169 19.2097 25.1039C19.4014 24.9405 19.6641 24.7204 19.8701 24.5642C19.7068 24.5073 19.4937 24.4292 19.3375 24.3795Z" fill="white"/>
<path d="M19.5008 22.0502C19.728 22.2206 20.0192 22.455 20.2322 22.6396C20.2819 22.2916 20.3387 21.8229 20.3743 21.4678C20.6796 21.2264 21.0915 20.9068 21.404 20.6654C21.0702 20.5731 20.6157 20.4594 20.2748 20.3742C20.1612 20.0049 19.9979 19.5078 19.87 19.1385C19.6641 19.4936 19.3871 19.9623 19.1883 20.3245C18.819 20.3742 18.3219 20.4452 17.9526 20.502C18.2083 20.7648 18.5492 21.1128 18.7977 21.3897C18.7267 21.7377 18.6415 22.2064 18.5776 22.5544C18.8545 22.4053 19.2238 22.1993 19.5008 22.0502Z" fill="white"/>
<path d="M8.93359 11.0215C8.83417 10.6877 8.69924 10.2332 8.62113 9.89233C8.43649 10.3397 8.20214 10.9292 8.0388 11.3837C7.79025 11.5754 7.46358 11.831 7.23633 12.0441C7.38546 12.2713 7.68372 12.527 7.76184 12.7898C7.74054 13.2656 7.72633 13.8976 7.72633 14.3734C7.93228 14.0396 8.23054 13.5993 8.45779 13.2798C8.77026 13.3934 9.18215 13.5354 9.49461 13.6419C9.40229 13.2087 9.28157 12.6264 9.20345 12.1861C9.46621 11.7813 9.82839 11.2416 10.1124 10.851C9.76447 10.9079 9.28867 10.9647 8.93359 11.0215Z" fill="white"/>
<path d="M18.7338 12.5412C19.1954 12.3353 19.8204 12.0583 20.2891 11.8595C20.7365 12.1009 21.333 12.4276 21.7804 12.6832C21.7094 12.2145 21.6099 11.5967 21.5318 11.128C21.8869 10.8368 22.3627 10.4605 22.7249 10.1693C22.2278 10.0557 21.5602 9.91363 21.0631 9.80711C20.8288 9.40943 20.5163 8.87681 20.2749 8.47913C20.0476 8.85551 19.7493 9.35972 19.5292 9.7361C19.0037 9.79291 18.3077 9.87102 17.7822 9.93494C18.1657 10.2545 18.6699 10.6806 19.0463 11.0073C18.9469 11.4689 18.8261 12.0796 18.7338 12.5412Z" fill="white"/>
<path d="M22.9735 3.25945C23.0942 3.4725 23.2434 3.76366 23.3428 3.99091C23.5416 3.9341 23.7973 3.86308 23.9961 3.80627C24.3441 3.99091 24.8057 4.23946 25.1466 4.4312C24.8909 4.16845 24.5429 3.82757 24.2731 3.57902C24.2731 3.4867 24.2589 3.35177 24.2305 3.26655C23.9819 3.16713 23.6481 3.03931 23.3925 2.94699C23.08 2.77655 22.6681 2.5493 22.3486 2.39307C22.4551 2.49959 22.5971 2.64872 22.6823 2.77655C22.448 2.74814 22.1284 2.71974 21.887 2.69843C22.2207 2.85467 22.7107 2.9967 22.9735 3.25945Z" fill="white"/>
<path d="M18.7338 7.31453C19.167 7.15119 19.7493 6.93105 20.1896 6.77481C20.637 6.97365 21.2336 7.24351 21.6738 7.45656C21.5531 7.08728 21.3969 6.59017 21.2762 6.228C21.5602 6.02205 21.9366 5.75219 22.2136 5.54625C21.7733 5.45393 21.1767 5.34741 20.7293 5.26219C20.5021 4.98523 20.1896 4.60885 19.9624 4.33899C19.7919 4.60175 19.5647 4.94262 19.3943 5.19827C18.9327 5.23378 18.3219 5.29059 17.8674 5.3403C18.2083 5.57465 18.6628 5.88712 19.0037 6.12147C18.9185 6.47655 18.8119 6.95235 18.7338 7.31453Z" fill="white"/>
<path d="M26.6805 5.07754C26.6947 5.05623 26.7089 5.03493 26.7231 5.01362C26.716 4.99942 26.7089 4.97811 26.7018 4.96391L26.8581 5.11304L26.6947 4.95681C25.871 4.21825 25.7857 4.14724 25.0543 3.63593C24.9762 3.59332 24.8625 3.5294 24.7844 3.4939C25.1111 3.71404 25.5585 3.991 25.8639 4.25376C26.1124 4.49521 26.4462 4.82188 26.6805 5.07754Z" fill="white"/>
<path d="M26.8013 10.7019C26.5953 10.2616 26.3184 9.67927 26.0982 9.25317C25.9562 9.60115 25.7573 10.0627 25.6011 10.4107C25.1608 10.3894 24.5714 10.3681 24.1382 10.3539C24.472 10.7232 24.9122 11.2274 25.2318 11.6109C25.1395 12.0583 25.0188 12.6477 24.9122 13.088C25.3028 12.9531 25.8283 12.7684 26.2189 12.6335C26.5527 12.9389 26.9859 13.3437 27.2984 13.6632C27.27 13.1874 27.2344 12.5554 27.1847 12.0796C27.4404 11.8452 27.7742 11.5328 28.0156 11.2913C27.6534 11.1138 27.1705 10.8723 26.8013 10.7019Z" fill="white"/>
<path d="M25.1961 17.9739C25.4233 18.2438 25.7216 18.6059 25.9275 18.89C26.0341 18.4639 26.1761 17.8887 26.2613 17.4555C26.588 17.2353 27.0283 16.9371 27.3479 16.7098C27.0354 16.5323 26.6093 16.305 26.2826 16.1417C26.2045 15.6943 26.0909 15.0978 25.9844 14.6504C25.7358 15.0197 25.402 15.5026 25.1464 15.8648C24.7203 15.8505 24.1522 15.8363 23.7261 15.8292C23.9675 16.1843 24.28 16.6672 24.5001 17.0294C24.3226 17.4413 24.0812 17.9881 23.8894 18.3929C24.2942 18.2651 24.8055 18.0946 25.1961 17.9739Z" fill="white"/>
<path d="M25.743 6.03618C25.4589 5.70951 25.0754 5.28341 24.7843 4.97095C24.763 5.2124 24.7346 5.53907 24.692 5.78052C24.3227 5.75212 23.8256 5.72371 23.4563 5.7024C23.8185 5.98647 24.3014 6.36995 24.6565 6.66821C24.6778 7.02329 24.6991 7.49909 24.6991 7.85417C25.0186 7.74764 25.4447 7.61271 25.7714 7.51329C26.1478 7.77605 26.6449 8.13823 27.0071 8.41519C26.8437 8.0175 26.6236 7.49199 26.446 7.1014C26.581 6.93807 26.7514 6.71082 26.8721 6.53328C26.5313 6.37705 26.0768 6.17821 25.743 6.03618Z" fill="white"/>
<path d="M18.677 3.56494C19.0036 3.46552 19.4439 3.33769 19.7706 3.23827C20.1328 3.3661 20.6157 3.53654 20.9779 3.67146C20.8429 3.44422 20.6583 3.14595 20.5092 2.9258C20.6654 2.81928 20.8784 2.68435 21.0347 2.57073C20.7222 2.52102 20.3103 2.45 19.9978 2.40739C19.8132 2.27957 19.5718 2.10913 19.38 1.9884C19.2948 2.10913 19.1741 2.25826 19.0888 2.37189C18.7764 2.38609 18.3574 2.41449 18.0449 2.4429C18.2864 2.56363 18.6059 2.73406 18.8474 2.86189C18.7977 3.06784 18.7267 3.3519 18.677 3.56494Z" fill="white"/>
<path d="M11.6891 4.41005C11.8666 4.1757 12.101 3.86324 12.2998 3.64309C12.6336 3.44425 13.081 3.18149 13.4218 2.99685C13.2443 3.03236 13.0029 3.08207 12.8324 3.12468C13.01 2.98975 13.2585 2.81931 13.4502 2.70569C13.1023 2.89033 12.6407 3.13888 12.3069 3.34483C12.1152 3.45135 11.8666 3.59338 11.6891 3.71411C11.5754 3.80642 11.4405 3.94135 11.3411 4.04788C11.0428 4.31773 10.6451 4.67991 10.3611 4.96397C10.6522 4.75093 11.0428 4.46687 11.3411 4.26802C11.4334 4.31063 11.5754 4.37455 11.6891 4.41005Z" fill="white"/>
<path d="M12.9886 6.51205C12.8324 6.88843 12.6193 7.39264 12.4773 7.77612C12.9247 7.53467 13.5283 7.2151 13.9828 6.98075C14.4018 7.10858 14.9557 7.28612 15.3747 7.42105C15.3321 7.06597 15.2753 6.59017 15.2398 6.23509C15.6091 5.97233 16.1062 5.63146 16.4826 5.37581C16.0352 5.3616 15.4386 5.3403 14.9841 5.3332C14.8634 5.08464 14.7001 4.75797 14.5935 4.50232C14.3095 4.79348 13.9331 5.19117 13.6632 5.48943C13.2301 5.60306 12.6619 5.75929 12.2358 5.88002C12.4489 6.07886 12.7543 6.32741 12.9886 6.51205Z" fill="white"/>
<path d="M13.1877 18.329C13.5144 18.0663 13.9547 17.7254 14.2955 17.484C14.7287 17.6402 15.2969 17.8532 15.723 18.0237C15.588 17.5976 15.4034 17.0366 15.2685 16.6105C15.5809 16.2696 16.007 15.8151 16.3266 15.4884C15.8295 15.4529 15.1761 15.4174 14.679 15.389C14.4163 15.0055 14.0683 14.4871 13.8055 14.1036C13.6351 14.5368 13.4079 15.1192 13.2516 15.5594C12.8184 15.6944 12.2503 15.879 11.8242 16.0282C12.1935 16.2838 12.6906 16.6176 13.067 16.8732C13.1025 17.3135 13.1451 17.8959 13.1877 18.329Z" fill="white"/>
<path d="M8.68511 7.74762C8.50047 8.15241 8.26612 8.68502 8.10278 9.09691C8.37974 8.79865 8.76323 8.40096 9.05439 8.124C9.28164 8.20922 9.5799 8.31574 9.80715 8.40096C9.85686 8.03878 9.92788 7.56298 9.99889 7.20791C10.3327 6.88834 10.7801 6.46225 11.1209 6.15688C10.8298 6.19949 10.4392 6.2634 10.148 6.32022C10.1906 6.07166 10.2474 5.74499 10.3185 5.50354C10.0273 5.83731 9.64381 6.29181 9.36685 6.63978C9.1254 6.79602 8.81294 7.01617 8.58569 7.1937C8.60699 7.35704 8.69931 7.57719 8.68511 7.74762Z" fill="white"/>
<path d="M20.8855 15.2966C20.6938 14.8705 20.431 14.3024 20.2322 13.8834C19.9978 14.2882 19.6783 14.8208 19.4439 15.2256C18.9539 15.2824 18.2935 15.3676 17.8035 15.4316C18.1514 15.744 18.6201 16.163 18.961 16.4826C18.8758 16.9158 18.7551 17.491 18.6699 17.9171C19.0746 17.7253 19.6215 17.4697 20.0262 17.278C20.3955 17.4981 20.8855 17.8035 21.2406 18.0378C21.2264 17.6046 21.2051 17.0223 21.1838 16.582C21.546 16.2979 22.036 15.9216 22.4053 15.6446C21.9579 15.5381 21.3471 15.396 20.8855 15.2966Z" fill="white"/>
<path d="M15.0625 3.40163C15.3536 3.47265 15.7442 3.57917 16.0425 3.65728C16.0567 3.44424 16.078 3.16018 16.1064 2.94713C16.4047 2.8051 16.7952 2.61336 17.0935 2.47133C16.7952 2.47133 16.3976 2.47133 16.0993 2.47133C16.0851 2.36481 16.0638 2.21568 16.0709 2.10205C15.8081 2.23698 15.4602 2.42872 15.2045 2.57785C14.8991 2.64887 14.4873 2.74119 14.1819 2.8193C14.2671 2.91873 14.3807 3.05366 14.473 3.13887C14.26 3.37322 13.9759 3.67859 13.7771 3.92004C14.1606 3.76381 14.6719 3.55076 15.0625 3.40163Z" fill="white"/>
<path d="M15.5879 20.4524C15.3252 20.1115 14.9772 19.657 14.7073 19.3232C14.6363 19.6996 14.5511 20.2038 14.5085 20.5802C14.196 20.6867 13.7841 20.8359 13.4788 20.9495C13.8196 21.1625 14.3736 21.3401 14.6221 21.6667C14.7357 22.0147 14.8991 22.4763 15.034 22.8172C15.2044 22.6184 15.4388 22.3627 15.6163 22.1781C15.9359 22.3059 16.3549 22.4834 16.6673 22.6255C16.5182 22.2846 16.3265 21.8301 16.1773 21.4821C16.3691 21.198 16.6389 20.8217 16.8449 20.5447C16.4756 20.5163 15.9643 20.4808 15.5879 20.4524Z" fill="white"/>
<path d="M14.4588 9.9066C14.2529 9.54442 13.9759 9.06152 13.77 8.69934C13.5143 9.11123 13.1805 9.66515 12.9391 10.0841C12.4633 10.2191 11.8312 10.4179 11.3625 10.567C11.6892 10.8298 12.1366 11.1778 12.4704 11.4334C12.3994 11.9021 12.3142 12.5342 12.2573 13.0029C12.6834 12.7188 13.2587 12.3424 13.6918 12.0726C14.1606 12.243 14.7855 12.4703 15.2471 12.6407C15.1477 12.1933 15.0127 11.5897 14.9204 11.1352C15.2968 10.7872 15.8081 10.3185 16.1916 9.97762C15.6732 9.96341 14.9843 9.9279 14.4588 9.9066Z" fill="white"/>
<path d="M21.2903 26.6236C21.9152 27.5894 23.1012 28.2711 24.2303 28.3777C26.1619 28.5552 28.3918 29.6346 28.3918 29.6346C28.3918 29.6346 27.7953 25.324 25.5654 25.5015C27.3479 25.324 28.5409 26.2188 29.5778 26.3963C30.6146 26.5739 32.255 26.3963 32.7024 27.2911C32.8516 25.4944 32.5533 23.5202 29.2795 22.9805C31.5094 22.803 32.9936 21.9011 33.7393 21.1838C34.4849 20.4666 35.82 20.4666 35.82 20.4666C35.82 20.4666 33.5901 18.1302 31.6585 18.6699C34.1867 17.9526 35.0814 15.2611 36.5657 15.2611C34.9323 14.1817 33.8884 13.2869 32.255 14.899C34.3358 12.7472 34.634 8.79166 33.441 6.45526C31.6585 7.71223 31.3602 9.50891 31.3602 9.50891C31.3602 9.50891 29.2866 -0.177569 24.6777 -3.03905e-05C25.2742 2.15173 25.5725 3.4087 25.5725 3.4087C25.5796 3.44421 25.7713 3.52233 25.7998 3.53653C29.5707 5.77351 31.6514 9.97051 31.4597 14.3095C31.4455 14.6149 31.4242 14.9203 31.3887 15.2256C31.3034 15.9784 31.1614 16.7241 30.9697 17.4626C30.6785 18.5563 30.2524 19.6215 29.6843 20.6086C28.3066 23.0018 26.2827 25.1678 23.6196 26.0981C22.9946 26.3182 22.3413 26.4958 21.688 26.6094C21.553 26.6378 21.4252 26.6307 21.2903 26.6236Z" fill="white"/>
<path d="M15.2825 26.6226C14.6575 27.5884 13.4716 28.2702 12.3425 28.3767C10.4108 28.5542 8.18096 29.6337 8.18096 29.6337C8.18096 29.6337 8.77749 25.323 11.0074 25.5006C9.22488 25.323 8.03183 26.2178 6.995 26.3954C5.95818 26.5729 4.31773 26.3954 3.87033 27.2902C3.7212 25.4935 4.01946 23.5192 7.29327 22.9795C5.06339 22.802 3.57917 21.9001 2.83351 21.1828C2.08785 20.4656 0.752762 20.4656 0.752762 20.4656C0.752762 20.4656 2.98264 18.1292 4.91426 18.6689C2.37901 17.9588 1.48422 15.2673 0 15.2673C1.63335 14.1878 2.67728 13.293 4.31063 14.9051C2.22988 12.7533 1.93162 8.79778 3.12467 6.46138C4.90715 7.71835 5.20542 9.51503 5.20542 9.51503C5.20542 9.51503 7.28617 -0.178547 11.8951 -0.0010087C11.2985 2.15075 11.0003 3.40772 11.0003 3.40772C10.9932 3.44323 10.8014 3.52135 10.773 3.53555C7.0021 5.77963 4.92846 9.97663 5.1131 14.3157C5.1273 14.621 5.14861 14.9264 5.18411 15.2318C5.26933 15.9845 5.41136 16.7302 5.6031 17.4687C5.89427 18.5624 6.32036 19.6276 6.88848 20.6147C8.26618 23.0079 10.2901 25.1739 12.9532 26.1042C13.5781 26.3243 14.2315 26.5019 14.8848 26.6155C15.0197 26.6368 15.1547 26.6297 15.2825 26.6226Z" fill="white"/>
<path d="M55.0226 12.6975V7.93238L54.9516 7.86136L51.5855 4.49524H42.8009L39.3638 7.93238V14.8564L41.4445 16.9371H39.3638V21.6951L42.8009 25.1323H51.5855L55.0226 21.6951V14.7711L52.9419 12.6904H55.0226V12.6975ZM53.6591 11.334H48.1839V10.0912H46.1954V12.6975H51.0174L53.652 15.3322V21.127L51.0174 23.7617H43.369L40.7344 21.127V18.2935H46.2096V19.5363H48.1981V16.9229H43.3761L40.7415 14.2882V8.4934L43.3761 5.85873H51.0316L53.6662 8.4934V11.334H53.6591Z" fill="white"/>
<path d="M63.7787 10.0912H61.7903V19.5433H63.7787V10.0912Z" fill="white"/>
<path d="M67.1802 4.50232H54.9514V25.1322H67.1802L70.5819 21.7306L70.6174 21.6951V7.93236L67.1802 4.50232ZM69.2539 21.1341L66.6192 23.7688H56.3149V5.86581H66.6121L69.2468 8.50048V21.1341H69.2539Z" fill="white"/>
<path d="M86.1982 12.6975V7.93238L82.7611 4.49524H73.9694L70.5677 7.89687L70.5322 7.93238V14.8564L70.6032 14.9274L72.613 16.9371H70.5322V21.6951L70.5677 21.7306L73.9694 25.1323H82.7611L86.1272 21.7661L86.1982 21.6951V14.7711L84.1174 12.6904H86.1982V12.6975ZM84.8347 11.334H79.3594V10.0912H77.371V12.6975H82.1929L84.8276 15.3322V21.127L82.1929 23.7617H74.5304L71.8957 21.127V18.2935H77.371V19.5363H79.3594V16.9229H74.5375L71.9028 14.2882V8.4934L74.5375 5.85873H82.2L84.8347 8.4934V11.334Z" fill="white"/>
<path d="M94.9545 10.0912H92.9661V12.6974H94.9545V10.0912Z" fill="white"/>
<path d="M94.9545 16.9301H92.9661V19.5434H94.9545V16.9301Z" fill="white"/>
<path d="M101.786 7.93238L98.3492 4.49524H86.1274V25.1252H98.3492L101.786 21.688V16.0068L100.586 14.8067L101.786 13.6065V7.93238ZM100.43 13.0526L98.6616 14.8209L100.43 16.5891V21.1412L97.7953 23.7759H87.498V5.86583H97.7953L100.43 8.5005V13.0526Z" fill="white"/>
<path d="M113.014 4.53784V14.5297H110.017V4.53784H103.732V16.3619L106.757 19.3871H113.014V25.1039H119.298V4.53784H113.014Z" fill="white"/>
<path d="M131.975 4.53784H120.151V25.0968H131.975L135 22.0644V7.56309L131.975 4.53784ZM128.722 20.2393H126.435V9.38818H128.722V20.2393Z" fill="white"/>
</g>
<defs>
<clipPath id="clip0_2_1917">
<rect width="135" height="29.6347" fill="white"/>
</clipPath>
</defs>
</svg>
